# xmcd
#
# Track frame offsets: 
#        150
#        15375
#        28912
#        41062
#        51449
#        64499
#        73911
#        84861
#        94123
#        102157
#        123176
#        136268
#        149080
#        162017
#
# Disc length: 2324 seconds
#
# Revision: 0
# Processed by: cddbd v1.5.2PL0 Copyright (c) Steve Scherf et al.
# Submitted via: ExactAudioCopy v1.3
#
DISCID=c509120e
DTITLE=licking county hot lix - bluegrass instrumentals
DYEAR=2007
DGENRE=Bluegrass
TTITLE0=buck's run
TTITLE1=old joe clark
TTITLE2=dixie hoedown
TTITLE3=soldier's joy
TTITLE4=gold rush
TTITLE5=deep river blues
TTITLE6=monroe's hornpipe
TTITLE7=cluck old hen
TTITLE8=bury me beneath the willow
TTITLE9=jerusalem ridge
TTITLE10=cherokee shuffle
TTITLE11=whiskey before breakfast
TTITLE12=beaumont rag
TTITLE13=salt creek
EXTD=
EXTT0=
EXTT1=
EXTT2=
EXTT3=
EXTT4=
EXTT5=
EXTT6=
EXTT7=
EXTT8=
EXTT9=
EXTT10=
EXTT11=
EXTT12=
EXTT13=
PLAYORDER=
